<svg width="696" height="468" viewBox="0 0 696 468" fill="none" xmlns="http://www.w3.org/2000/svg">
<g clip-path="url(#clip0_3298_69228)">
<path d="M226.56 104.67C226.568 121.817 233.383 138.259 245.507 150.383C257.632 162.507 274.073 169.322 291.22 169.33H484.7C501.78 169.18 518.721 172.414 534.544 178.847C550.368 185.279 564.76 194.782 576.891 206.807C589.022 218.832 598.651 233.14 605.223 248.906C611.794 264.673 615.177 281.584 615.177 298.665C615.177 315.746 611.794 332.658 605.223 348.424C598.651 364.19 589.022 378.499 576.891 390.524C564.76 402.548 550.368 412.051 534.544 418.484C518.721 424.916 501.78 428.15 484.7 428H226.04C191.743 427.987 158.854 414.357 134.601 390.106C110.348 365.855 96.7159 332.968 96.7 298.67V104.67C96.7 87.4497 103.541 70.9345 115.718 58.7578C127.894 46.5811 144.409 39.7402 161.63 39.7402C178.85 39.7402 195.366 46.5811 207.542 58.7578C219.719 70.9345 226.56 87.4497 226.56 104.67Z" fill="#00ED64"/>
<path d="M84.54 103.141H164.45" stroke="black" stroke-miterlimit="10" stroke-dasharray="2 2"/>
<path d="M181.07 115.63C183.431 115.62 185.737 114.911 187.695 113.592C189.654 112.273 191.178 110.403 192.075 108.219C192.972 106.034 193.201 103.633 192.734 101.319C192.268 99.0038 191.126 96.8792 189.452 95.2129C187.779 93.5467 185.65 92.4135 183.333 91.9565C181.016 91.4994 178.616 91.739 176.436 92.6449C174.255 93.5508 172.391 95.0825 171.081 97.0465C169.77 99.0106 169.07 101.319 169.07 103.68C169.07 105.254 169.381 106.812 169.984 108.265C170.588 109.718 171.473 111.038 172.588 112.148C173.703 113.258 175.026 114.138 176.482 114.735C177.937 115.333 179.497 115.637 181.07 115.63Z" fill="white" stroke="black" stroke-linecap="round" stroke-linejoin="round"/>
<path d="M193.02 103.77C193.023 106.353 192.19 108.867 190.644 110.936C189.098 113.006 186.924 114.518 184.446 115.248C181.969 115.978 179.322 115.885 176.901 114.984C174.481 114.083 172.417 112.422 171.02 110.25C172.952 111.523 175.217 112.197 177.53 112.19C179.887 112.187 182.19 111.485 184.147 110.173C186.105 108.861 187.63 106.999 188.53 104.82C189.27 103.03 189.566 101.087 189.392 99.1573C189.217 97.2278 188.579 95.3692 187.53 93.7402C189.203 94.8188 190.578 96.2989 191.532 98.0457C192.486 99.7924 192.987 101.75 192.99 103.74L193.02 103.77Z" fill="black" stroke="black" stroke-linejoin="round"/>
<path d="M241.16 176.891H129.57C128.244 176.891 126.972 177.417 126.035 178.355C125.097 179.293 124.57 180.565 124.57 181.891V248.121C124.57 249.447 125.097 250.718 126.035 251.656C126.972 252.594 128.244 253.121 129.57 253.121H241.16C242.486 253.121 243.758 252.594 244.696 251.656C245.633 250.718 246.16 249.447 246.16 248.121V181.901C246.161 181.243 246.033 180.592 245.782 179.984C245.532 179.376 245.164 178.824 244.699 178.359C244.235 177.893 243.683 177.524 243.076 177.272C242.469 177.02 241.818 176.891 241.16 176.891Z" fill="#FFEEA9" stroke="black" stroke-linecap="round" stroke-linejoin="round"/>
<path d="M237.27 190.141H133.45V239.901H237.27V190.141Z" fill="white"/>
<path d="M139.41 206.119H231.41" stroke="#FFE212" stroke-linecap="round" stroke-linejoin="round"/>
<path d="M139.41 197.24H231.41" stroke="#FFE212" stroke-linecap="round" stroke-linejoin="round"/>
<path d="M139.41 215H231.41" stroke="#FFE212" stroke-linecap="round" stroke-linejoin="round"/>
<path d="M139.41 223.91H231.41" stroke="#FFE212" stroke-linecap="round" stroke-linejoin="round"/>
<path d="M139.41 232.801H231.41" stroke="#FFE212" stroke-linecap="round" stroke-linejoin="round"/>
<path d="M140.2 230.291L156.2 228.471L159.73 229.041L163.24 227.611L166.06 228.931L175.77 225.401L177.86 227.231L186.06 220.701L187.82 221.431L199.76 205.221L219.27 197.221" stroke="black" stroke-linecap="round" stroke-linejoin="round"/>
<path d="M124.56 223.529V247.599C125.682 247.828 126.825 247.942 127.97 247.939C130.883 247.938 133.751 247.231 136.33 245.877C138.909 244.524 141.121 242.565 142.776 240.168C144.431 237.771 145.48 235.009 145.833 232.118C146.185 229.227 145.831 226.293 144.8 223.569L124.56 223.529Z" fill="black" stroke="black" stroke-linecap="round" stroke-linejoin="round"/>
<path d="M128.26 238.531C131.811 238.533 135.283 237.482 138.236 235.51C141.19 233.538 143.492 230.735 144.852 227.455C146.212 224.174 146.568 220.564 145.876 217.081C145.183 213.599 143.474 210.399 140.963 207.888C138.452 205.377 135.252 203.668 131.769 202.975C128.287 202.283 124.677 202.639 121.396 203.999C118.116 205.359 115.313 207.661 113.341 210.615C111.369 213.568 110.318 217.04 110.32 220.591C110.32 225.349 112.21 229.912 115.575 233.276C118.939 236.641 123.502 238.531 128.26 238.531Z" fill="black" stroke="black" stroke-linecap="round" stroke-linejoin="round"/>
<path d="M128.26 236.13C131.808 236.13 135.277 235.078 138.227 233.107C141.177 231.135 143.477 228.333 144.834 225.055C146.192 221.777 146.548 218.17 145.855 214.69C145.163 211.21 143.455 208.013 140.946 205.505C138.437 202.996 135.24 201.287 131.76 200.595C128.28 199.903 124.673 200.258 121.395 201.616C118.117 202.973 115.315 205.273 113.344 208.223C111.372 211.173 110.32 214.642 110.32 218.19C110.32 222.948 112.21 227.511 115.575 230.875C118.939 234.24 123.502 236.13 128.26 236.13Z" fill="#B1FF05" stroke="black" stroke-linecap="round" stroke-linejoin="round"/>
<path d="M140 213.61L135.75 209.35L126.57 218.53L122.24 214.21L118 218.46L122.32 222.78L126.57 227.03L130.82 222.78L140 213.61Z" fill="white" stroke="black" stroke-linecap="round" stroke-linejoin="round"/>
<path d="M580.33 144H407.25V275.47H580.33V144Z" fill="white" stroke="black" stroke-linecap="round" stroke-linejoin="round"/>
<path d="M571.7 152.5H415.89V267H571.69L571.7 152.5Z" fill="#FFE212" stroke="black" stroke-linecap="round" stroke-linejoin="round"/>
<path d="M571.7 236.81L552.98 218L528.59 238.25L466.38 183.18L415.89 234.27V267H571.69L571.7 236.81Z" fill="#00ED64" stroke="black" stroke-linecap="round" stroke-linejoin="round"/>
<path d="M534.99 201.921C538.323 201.921 541.581 200.932 544.352 199.081C547.122 197.229 549.282 194.598 550.557 191.519C551.833 188.44 552.167 185.052 551.516 181.783C550.866 178.515 549.261 175.512 546.905 173.156C544.548 170.799 541.546 169.195 538.277 168.544C535.009 167.894 531.621 168.228 528.542 169.503C525.463 170.779 522.831 172.938 520.98 175.709C519.128 178.48 518.14 181.738 518.14 185.071C518.14 189.54 519.915 193.825 523.075 196.985C526.235 200.145 530.521 201.921 534.99 201.921Z" fill="white" stroke="black" stroke-linecap="round" stroke-linejoin="round"/>
<path d="M580.33 236.359V269.169C578.799 269.474 577.241 269.625 575.68 269.619C571.701 269.627 567.78 268.667 564.254 266.823C560.729 264.979 557.704 262.305 555.441 259.033C553.178 255.76 551.744 251.986 551.263 248.037C550.782 244.087 551.268 240.079 552.68 236.359H580.33Z" fill="black" stroke="black" stroke-linecap="round" stroke-linejoin="round"/>
<path d="M574.48 248.12C579.322 248.12 584.055 246.684 588.08 243.995C592.106 241.305 595.244 237.481 597.097 233.008C598.949 228.535 599.434 223.613 598.49 218.864C597.545 214.116 595.214 209.754 591.79 206.33C588.366 202.907 584.004 200.575 579.256 199.631C574.507 198.686 569.585 199.171 565.112 201.024C560.639 202.876 556.816 206.014 554.126 210.04C551.436 214.066 550 218.798 550 223.64C550 230.133 552.579 236.359 557.17 240.95C561.761 245.541 567.988 248.12 574.48 248.12Z" fill="black" stroke="black" stroke-linecap="round" stroke-linejoin="round"/>
<path d="M574.48 244.86C579.322 244.86 584.055 243.425 588.08 240.735C592.106 238.045 595.244 234.222 597.097 229.748C598.949 225.275 599.434 220.353 598.49 215.605C597.545 210.856 595.214 206.494 591.79 203.07C588.366 199.647 584.004 197.315 579.256 196.371C574.507 195.426 569.585 195.911 565.112 197.764C560.639 199.617 556.816 202.754 554.126 206.78C551.436 210.806 550 215.539 550 220.38C550 226.873 552.579 233.099 557.17 237.69C561.761 242.281 567.988 244.86 574.48 244.86Z" fill="#B1FF05" stroke="black" stroke-linecap="round" stroke-linejoin="round"/>
<path d="M590.48 214.111L584.69 208.311L572.17 220.841L566.26 214.941L560.48 220.741L566.37 226.641L572.17 232.431L577.97 226.641L590.48 214.111Z" fill="white" stroke="black" stroke-linecap="round" stroke-linejoin="round"/>
<path d="M395.21 369L174.28 368.91L219.13 230.49L440.07 230.58L395.21 369Z" fill="white" stroke="black" stroke-linecap="round" stroke-linejoin="round"/>
<path d="M386.66 359.411H189.09L227.7 240.141H425.25L386.66 359.411Z" fill="#FFE212" stroke="black" stroke-linecap="round" stroke-linejoin="round"/>
<path d="M295.04 368.939H53.5V381.679H295.04V368.939Z" fill="white" stroke="black" stroke-linecap="round" stroke-linejoin="round"/>
<path d="M395.21 369H295.04V381.72H395.21V369Z" fill="black" stroke="black" stroke-linecap="round" stroke-linejoin="round"/>
<path d="M251.89 266.17L417.59 300L430.82 259.18L251.89 266.17Z" fill="black" stroke="black" stroke-linecap="round" stroke-linejoin="round"/>
<path d="M445.14 118.231V256.911C445.14 259.391 444.155 261.769 442.401 263.522C440.648 265.276 438.27 266.261 435.79 266.261H263.89V108.881H435.79C438.27 108.881 440.648 109.866 442.401 111.619C444.155 113.373 445.14 115.751 445.14 118.231Z" fill="white" stroke="black" stroke-linecap="round" stroke-linejoin="round"/>
<path d="M263.89 108.881V266.261H252.89C251.662 266.261 250.446 266.019 249.312 265.549C248.178 265.079 247.147 264.391 246.279 263.522C245.41 262.654 244.722 261.623 244.252 260.489C243.782 259.355 243.54 258.139 243.54 256.911V118.231C243.54 115.751 244.525 113.373 246.279 111.619C248.032 109.866 250.41 108.881 252.89 108.881H263.89Z" fill="#00ED64" stroke="black" stroke-linecap="round" stroke-linejoin="round"/>
<path d="M277.2 131.551H399.25" stroke="black" stroke-linecap="round" stroke-linejoin="round"/>
<path d="M321.7 147H379.14" stroke="black" stroke-linecap="round" stroke-linejoin="round"/>
<path d="M277.2 147H312.55" stroke="black" stroke-linecap="round" stroke-linejoin="round"/>
<path d="M313.2 176.83H379.14" stroke="black" stroke-linecap="round" stroke-linejoin="round"/>
<path d="M277.2 176.83H299.76" stroke="black" stroke-linecap="round" stroke-linejoin="round"/>
<path d="M311.24 206.68H379.14" stroke="black" stroke-linecap="round" stroke-linejoin="round"/>
<path d="M277.2 206.68H301.2" stroke="black" stroke-linecap="round" stroke-linejoin="round"/>
<path d="M311.24 161.9H421.24" stroke="black" stroke-linecap="round" stroke-linejoin="round"/>
<path d="M277.2 161.9H300.78" stroke="black" stroke-linecap="round" stroke-linejoin="round"/>
<path d="M319.74 221.609H399.26" stroke="black" stroke-linecap="round" stroke-linejoin="round"/>
<path d="M277.2 221.609H312.55" stroke="black" stroke-linecap="round" stroke-linejoin="round"/>
<path d="M327.59 191.75H410.59" stroke="black" stroke-linecap="round" stroke-linejoin="round"/>
<path d="M277.2 191.75H317.78" stroke="black" stroke-linecap="round" stroke-linejoin="round"/>
<path d="M327.59 235.789H410.59" stroke="black" stroke-linecap="round" stroke-linejoin="round"/>
<path d="M277.2 235.789H317.78" stroke="black" stroke-linecap="round" stroke-linejoin="round"/>
<path d="M498.21 296.999V304.549C493.87 304.469 490.92 305.659 488.66 308.139C486.4 310.619 485.13 316.289 484.88 325.139C484.849 330.161 484.461 335.173 483.72 340.139C483.244 343.143 481.911 345.946 479.88 348.209C477.827 350.393 475.211 351.968 472.32 352.759C469.26 353.659 464.957 354.029 459.41 353.869L456.24 353.789L456.63 339.519C462.417 339.679 465.897 339.176 467.07 338.009C468.23 336.839 468.92 334.529 469.07 331.059C469.57 321.493 470.05 315.273 470.51 312.399C470.969 309.534 471.938 306.774 473.37 304.249C474.823 301.669 477.46 299.233 481.28 296.939L498.21 296.999Z" fill="#00ED64" stroke="black" stroke-linecap="round" stroke-linejoin="round"/>
<path d="M480.75 296.81C477.531 294.952 474.871 292.261 473.05 289.02C471.45 286.02 470.55 281.7 470.3 276.07L469.54 258.63C469.399 257.856 469.103 257.118 468.67 256.46C468.23 255.8 467.658 255.238 466.99 254.81C465.657 253.937 462.547 253.483 457.66 253.45L457.77 239.08H460.89C467.27 239.127 472.193 239.893 475.66 241.38C478.99 242.74 481.674 245.324 483.16 248.6C484.693 251.933 485.427 257.29 485.36 264.67C485.3 272.817 485.543 278.027 486.09 280.3C486.642 282.617 487.732 284.772 489.27 286.59C490.857 288.49 493.857 289.543 498.27 289.75L498.22 296.98L480.75 296.81Z" fill="white" stroke="black" stroke-linecap="round" stroke-linejoin="round"/>
<path d="M523.55 275.41H508.26L507.79 264.8C507.657 264.02 507.361 263.277 506.92 262.62C506.48 261.96 505.908 261.398 505.24 260.97C503.907 260.097 500.8 259.644 495.92 259.61L496.02 245.23H499.14C505.527 245.284 510.453 246.054 513.92 247.54C517.25 248.893 519.931 251.475 521.41 254.75C522.93 258.084 523.667 263.44 523.62 270.82C523.57 272.49 523.55 274 523.55 275.41Z" fill="black" stroke="black" stroke-linecap="round" stroke-linejoin="round"/>
<path d="M513.4 296.881H619.18" stroke="black" stroke-miterlimit="10" stroke-dasharray="2 2"/>
<path d="M563.33 316.34H642.28" stroke="black" stroke-miterlimit="10" stroke-dasharray="2 2"/>
</g>
<defs>
<clipPath id="clip0_3298_69228">
<rect width="589.28" height="388" fill="white" transform="translate(53 40)"/>
</clipPath>
</defs>
</svg>
